<mxfile host="app.diagrams.net" modified="2023-09-28T15:19:34.486Z" agent="Mozilla/5.0 (Windows NT 10.0; Win64; x64) AppleWebKit/537.36 (KHTML, like Gecko) Chrome/117.0.0.0 Safari/537.36" version="22.0.0" etag="sH0npuKxMnJdVTs7XuFE" type="github">
  <diagram name="Page-1" id="ZV8WJSpdLzPZmaFsV18U">
    <mxGraphModel>
      <root>
        <mxCell id="0" />
        <mxCell id="1" parent="0" />
      </root>
    </mxGraphModel>
  </diagram>
</mxfile>
